<svg aria-hidden="true" style="width:0;height:0;position:absolute;overflow:hidden" xmlns="http://www.w3.org/2000/svg"><defs><symbol id="icon-header_arrow" viewBox="0 0 46 32"><path fill="none" stroke="#000" style="stroke:var(--color1,#000)" stroke-linecap="round" stroke-width="9.143" d="m4.571 4.571 18.286 18.286L41.143 4.571"/></symbol><symbol id="icon-facebook" viewBox="0 0 32 32"><path fill="#fff" style="fill:var(--color1,#fff)" d="M24.144 11.43h-5.86V8.574s-.328-2.716 1.571-2.716h3.86V.001h-6.572s-5.5-.023-5.5 5.5c0 1.186-.005 3.347-.014 5.93H7.855v4.716h3.764l-.048 15.854h6.713V16.147h4.43l1.43-4.716z"/></symbol><symbol id="icon-twitter" viewBox="0 0 32 32"><path fill="#fff" style="fill:var(--color1,#fff)" d="M32 6.078c-1.19.522-2.458.868-3.78 1.036a6.523 6.523 0 0 0 2.886-3.626 13.11 13.11 0 0 1-4.16 1.588A6.574 6.574 0 0 0 22.154 3c-3.632 0-6.556 2.948-6.556 6.562 0 .52.044 1.02.152 1.496-5.454-.266-10.28-2.88-13.522-6.862a6.605 6.605 0 0 0-.898 3.316 6.57 6.57 0 0 0 2.914 5.452 6.479 6.479 0 0 1-2.964-.808v.072c0 3.188 2.274 5.836 5.256 6.446a6.548 6.548 0 0 1-1.72.216 5.8 5.8 0 0 1-1.242-.112c.85 2.598 3.262 4.508 6.13 4.57a13.182 13.182 0 0 1-8.134 2.798c-.538 0-1.054-.024-1.57-.09A18.469 18.469 0 0 0 10.064 29c12.072 0 18.672-10 18.672-18.668 0-.29-.01-.57-.024-.848A13.087 13.087 0 0 0 32 6.078z"/></symbol><symbol id="icon-youtube" viewBox="0 0 32 32"><path fill="#fff" style="fill:var(--color1,#fff)" d="M30.366 8.502a3.759 3.759 0 0 0-2.644-2.644c-2.348-.642-11.738-.642-11.738-.642s-9.39 0-11.738.618a3.837 3.837 0 0 0-2.644 2.669C.984 10.85.984 15.719.984 15.719s0 4.893.618 7.216a3.759 3.759 0 0 0 2.644 2.644c2.372.642 11.738.642 11.738.642s9.39 0 11.738-.618a3.759 3.759 0 0 0 2.644-2.644c.618-2.348.618-7.216.618-7.216s.025-4.893-.618-7.24zM12.994 20.215V11.22l7.809 4.497-7.809 4.497z"/></symbol><symbol id="icon-pinterest" viewBox="0 0 32 32"><path fill="#fff" style="fill:var(--color1,#fff)" d="M16.435 0C7.663.001 3 5.621 3 11.749c0 2.841 1.588 6.387 4.131 7.511.725.327.629-.072 1.253-2.459a.567.567 0 0 0-.136-.556c-3.635-4.204-.709-12.847 7.668-12.847 12.124 0 9.859 16.776 2.109 16.776-1.997 0-3.485-1.568-3.015-3.508.571-2.311 1.688-4.795 1.688-6.46 0-4.197-6.253-3.575-6.253 1.987 0 1.719.608 2.879.608 2.879S9.041 23.2 8.668 24.719c-.632 2.571.085 6.732.148 7.091.039.197.26.26.384.097.199-.26 2.631-3.729 3.312-6.237.248-.913 1.265-4.62 1.265-4.62.671 1.211 2.604 2.224 4.664 2.224 6.128 0 10.557-5.387 10.557-12.071C28.977 4.795 23.493 0 16.434 0z"/></symbol></defs></svg>