<svg width="33" height="30" viewBox="0 0 33 30" fill="none" xmlns="http://www.w3.org/2000/svg">
<path d="M2 13C0.895431 13 9.65645e-08 13.8954 0 15C-9.65645e-08 16.1046 0.89543 17 2 17L2 13ZM32.4142 16.4142C33.1953 15.6332 33.1953 14.3668 32.4142 13.5858L19.6863 0.857866C18.9052 0.0768171 17.6389 0.076817 16.8579 0.857866C16.0768 1.63891 16.0768 2.90524 16.8579 3.68629L28.1716 15L16.8579 26.3137C16.0768 27.0948 16.0768 28.3611 16.8579 29.1421C17.6389 29.9232 18.9052 29.9232 19.6863 29.1421L32.4142 16.4142ZM2 17L31 17L31 13L2 13L2 17Z" fill="white"/>
</svg>
