<svg aria-hidden="true" style="position: absolute; width: 0; height: 0; overflow: hidden;" version="1.1" xmlns="http://www.w3.org/2000/svg" xmlns:xlink="http://www.w3.org/1999/xlink">
<defs>
<symbol id="icon-header_arrow" viewBox="0 0 46 32">
<path  fill="none" stroke="#000000" style="stroke: var(--color1, #000000)" stroke-linejoin="miter" stroke-linecap="round" stroke-miterlimit="4" stroke-width="9.1429" d="M4.571 4.571l18.286 18.286 18.286-18.286"></path>
</symbol>
<symbol id="icon-facebook" viewBox="0 0 32 32">
<path fill="#fff" style="fill: var(--color1, #fff)" d="M24.144 11.43h-5.86v-2.856c0 0-0.328-2.716 1.571-2.716 2.146 0 3.86 0 3.86 0v-5.857h-6.572c0 0-5.5-0.023-5.5 5.5 0 1.186-0.005 3.347-0.014 5.93h-3.774v4.716h3.764c-0.022 7.498-0.048 15.854-0.048 15.854h6.713v-15.854h4.43l1.43-4.716z"></path>
</symbol>
<symbol id="icon-twitter" viewBox="0 0 32 32">
<path fill="#fff" style="fill: var(--color1, #fff)" d="M32 6.078c-1.19 0.522-2.458 0.868-3.78 1.036 1.36-0.812 2.398-2.088 2.886-3.626-1.268 0.756-2.668 1.29-4.16 1.588-1.204-1.282-2.92-2.076-4.792-2.076-3.632 0-6.556 2.948-6.556 6.562 0 0.52 0.044 1.020 0.152 1.496-5.454-0.266-10.28-2.88-13.522-6.862-0.566 0.982-0.898 2.106-0.898 3.316 0 2.272 1.17 4.286 2.914 5.452-1.054-0.020-2.088-0.326-2.964-0.808 0 0.020 0 0.046 0 0.072 0 3.188 2.274 5.836 5.256 6.446-0.534 0.146-1.116 0.216-1.72 0.216-0.42 0-0.844-0.024-1.242-0.112 0.85 2.598 3.262 4.508 6.13 4.57-2.232 1.746-5.066 2.798-8.134 2.798-0.538 0-1.054-0.024-1.57-0.090 2.906 1.874 6.35 2.944 10.064 2.944 12.072 0 18.672-10 18.672-18.668 0-0.29-0.010-0.57-0.024-0.848 1.302-0.924 2.396-2.078 3.288-3.406z"></path>
</symbol>
<symbol id="icon-youtube" viewBox="0 0 32 32">
<path fill="#fff" style="fill: var(--color1, #fff)" d="M30.366 8.502c-0.346-1.285-1.359-2.298-2.644-2.644-2.348-0.642-11.738-0.642-11.738-0.642s-9.39 0-11.738 0.618c-1.26 0.346-2.298 1.384-2.644 2.669-0.618 2.347-0.618 7.216-0.618 7.216s0 4.893 0.618 7.216c0.346 1.285 1.359 2.298 2.644 2.644 2.372 0.642 11.738 0.642 11.738 0.642s9.39 0 11.738-0.618c1.285-0.346 2.298-1.359 2.644-2.644 0.618-2.348 0.618-7.216 0.618-7.216s0.025-4.893-0.618-7.24zM12.994 20.215v-8.995l7.809 4.497-7.809 4.497z"></path>
</symbol>
<symbol id="icon-pinterest" viewBox="0 0 32 32">
<path fill="#fff" style="fill: var(--color1, #fff)" d="M16.435 0c-8.772 0.001-13.435 5.621-13.435 11.749 0 2.841 1.588 6.387 4.131 7.511 0.725 0.327 0.629-0.072 1.253-2.459 0.049-0.199 0.024-0.371-0.136-0.556-3.635-4.204-0.709-12.847 7.668-12.847 12.124 0 9.859 16.776 2.109 16.776-1.997 0-3.485-1.568-3.015-3.508 0.571-2.311 1.688-4.795 1.688-6.46 0-4.197-6.253-3.575-6.253 1.987 0 1.719 0.608 2.879 0.608 2.879s-2.012 8.128-2.385 9.647c-0.632 2.571 0.085 6.732 0.148 7.091 0.039 0.197 0.26 0.26 0.384 0.097 0.199-0.26 2.631-3.729 3.312-6.237 0.248-0.913 1.265-4.62 1.265-4.62 0.671 1.211 2.604 2.224 4.664 2.224 6.128 0 10.557-5.387 10.557-12.071-0.021-6.408-5.505-11.203-12.564-11.203v0z"></path>
</symbol>
</defs>
</svg>
