<svg width="126" height="127" viewBox="0 0 126 127" fill="none" xmlns="http://www.w3.org/2000/svg">
<g clip-path="url(#clip0_17_418)">
<path d="M125.25 63.6449C125.25 98.0251 97.3802 125.895 63 125.895C28.6198 125.895 0.75 98.0251 0.75 63.6449C0.75 29.2647 28.6198 1.3949 63 1.3949C97.3802 1.3949 125.25 29.2647 125.25 63.6449Z" fill="#FF0335" stroke="#CF052D" stroke-width="1.5"/>
<path d="M126 63.6449C126 62.1078 125.942 60.5831 125.834 59.0739L102.677 35.8536C99.9381 32.8044 95.9718 30.8779 91.5757 30.8779H34.4243C26.2138 30.8779 19.4962 37.5955 19.4962 45.8069V81.4838C19.4962 85.7318 21.2948 89.5789 24.1681 92.3042L58.4252 126.479C59.9363 126.587 61.461 126.645 63 126.645C97.7944 126.645 126 98.4393 126 63.6449Z" fill="#990011"/>
<path d="M91.5757 96.4119H34.4243C26.2138 96.4119 19.4962 89.6943 19.4962 81.4828V45.8069C19.4962 37.5955 26.2138 30.8779 34.4243 30.8779H91.5757C99.7862 30.8779 106.505 37.5955 106.505 45.8069V81.4838C106.504 89.6943 99.7862 96.4119 91.5757 96.4119Z" fill="white"/>
<path d="M106.505 45.806V81.4838C106.505 89.6943 99.7862 96.4119 91.5767 96.4119H63V30.8779H91.5767C99.7862 30.8779 106.505 37.5955 106.505 45.806Z" fill="#FFF5CB"/>
<path d="M49.0544 47.7046V79.5852L82.4414 63.6449L49.0544 47.7046Z" fill="#990011"/>
</g>
<defs>
<clipPath id="clip0_17_418">
<rect width="126" height="126" fill="white" transform="translate(0 0.644897)"/>
</clipPath>
</defs>
</svg>
